<svg width="20" height="20" viewBox="0 0 20 20" fill="none" xmlns="http://www.w3.org/2000/svg">
<path fill-rule="evenodd" clip-rule="evenodd" d="M16.5672 11.9542C16.7647 11.6966 16.8514 11.3791 16.8114 11.0583C16.7705 10.7366 16.6072 10.45 16.348 10.2508L14.2447 8.65998C14.1472 8.58582 14.093 8.46915 14.0997 8.34748L14.2439 5.69916C14.2597 5.42583 14.1872 5.16916 14.023 4.93249C13.6389 4.39499 12.8889 4.26999 12.3522 4.64999L10.1539 6.18332C10.053 6.25416 9.92304 6.26999 9.80554 6.22666L7.32552 5.30166C7.31968 5.29916 7.31302 5.29666 7.30718 5.29499C7.06885 5.21832 6.82135 5.21082 6.57718 5.27499C5.93385 5.46249 5.55635 6.13749 5.73802 6.78416L6.48468 9.32415C6.51885 9.44332 6.49302 9.57498 6.41302 9.67165L4.73552 11.7558C4.56218 11.9725 4.46802 12.2308 4.46468 12.5017C4.45468 13.1592 4.98468 13.7042 5.64718 13.7167L8.31135 13.7583C8.42971 13.7583 8.54054 13.8183 8.60721 13.9191L10.0472 16.1241C10.1955 16.3566 10.4189 16.5283 10.6564 16.6C10.7889 16.6483 10.9255 16.6717 11.063 16.6717C11.2389 16.6717 11.4147 16.6325 11.5797 16.5542C11.8739 16.4125 12.0964 16.1633 12.2022 15.8567L13.0972 13.3458C13.1397 13.225 13.2355 13.1341 13.3597 13.1008L15.9347 12.3825C16.198 12.3041 16.4172 12.1542 16.5672 11.9542Z" fill="white"/>
<path fill-rule="evenodd" clip-rule="evenodd" d="M9.65546 4.25833C10.0005 4.25833 10.2805 3.97833 10.2805 3.63333V2.5C10.2805 2.155 10.0005 1.875 9.65546 1.875C9.31046 1.875 9.03046 2.155 9.03046 2.5V3.63333C9.03046 3.97833 9.31046 4.25833 9.65546 4.25833Z" fill="white"/>
<path fill-rule="evenodd" clip-rule="evenodd" d="M16.4035 8.08348C16.4669 8.08348 16.531 8.07348 16.5944 8.05348L17.346 7.81182C17.6744 7.70598 17.8552 7.3543 17.7494 7.02513C17.6427 6.69597 17.2894 6.5168 16.9635 6.6218L16.2127 6.86347C15.8835 6.9693 15.7027 7.32097 15.8085 7.64932C15.8944 7.91515 16.1394 8.08348 16.4035 8.08348Z" fill="white"/>
<path fill-rule="evenodd" clip-rule="evenodd" d="M3.86125 8.79965H2.84375C2.49875 8.79965 2.21875 9.07965 2.21875 9.42465C2.21875 9.76965 2.49875 10.0496 2.84375 10.0496H3.86125C4.20625 10.0496 4.48625 9.76965 4.48625 9.42465C4.48625 9.07965 4.20625 8.79965 3.86125 8.79965Z" fill="white"/>
<path fill-rule="evenodd" clip-rule="evenodd" d="M7.96162 15.4731C7.63578 15.3656 7.28078 15.544 7.17245 15.8715L6.90912 16.6715C6.88828 16.7365 6.87828 16.8015 6.87828 16.8665C6.87745 17.129 7.04412 17.374 7.30745 17.4606C7.37245 17.4815 7.43828 17.4915 7.50328 17.4915C7.76578 17.4915 8.00995 17.3248 8.09662 17.0623L8.35996 16.2623C8.38079 16.1973 8.39162 16.1323 8.39162 16.0673C8.39162 15.804 8.22495 15.5598 7.96162 15.4731Z" fill="white"/>
<path fill-rule="evenodd" clip-rule="evenodd" d="M15.7037 15.0826C15.4687 14.8285 15.0712 14.8176 14.8195 15.051C14.5679 15.2868 14.5537 15.6826 14.7887 15.9343L16.6454 17.926C16.7679 18.0585 16.9362 18.1251 17.1029 18.1251C17.2554 18.1251 17.4087 18.0693 17.5287 17.9576C17.7812 17.7218 17.7954 17.326 17.5604 17.0743L15.7037 15.0826Z" fill="white"/>
</svg>
