<svg width="12" height="12" viewBox="0 0 12 12" fill="none" xmlns="http://www.w3.org/2000/svg">
<path d="M10.0099 5.3502L8.94994 6.02021C8.74994 6.14521 8.49494 6.1152 8.32994 5.9502L6.06494 3.6852C5.89994 3.52021 5.86994 3.26521 5.99494 3.06521L6.66494 2.00521C7.07494 1.36021 7.89494 1.3302 8.49994 1.9302L10.0899 3.52021C10.6499 4.08521 10.6149 4.9652 10.0099 5.3502Z" fill="white"/>
<path d="M7.35727 9.97683L2.99727 10.4868C2.95843 10.492 2.9201 10.4957 2.8823 10.4979C2.53973 10.5181 2.4548 10.1143 2.69745 9.87165L3.99227 8.57683C4.15227 8.42183 4.15227 8.17683 3.99227 8.02183C3.84227 7.86683 3.59727 7.86683 3.43727 8.02183L2.14245 9.31665C1.8998 9.5593 1.49973 9.47401 1.51794 9.13133C1.51985 9.09537 1.52295 9.05887 1.52727 9.02183L2.04227 4.66183C2.17227 3.57183 2.57227 3.21183 3.72227 3.28183L4.47227 3.32683C4.71727 3.34183 4.94727 3.44683 5.12227 3.62183L8.39727 6.89683C8.57227 7.07183 8.67727 7.30183 8.68727 7.54683L8.73227 8.29683C8.84727 9.45183 8.45227 9.85183 7.35727 9.97683Z" fill="white"/>
</svg>
