<svg width="113" height="40" viewBox="0 0 113 40" fill="none" xmlns="http://www.w3.org/2000/svg">
<path d="M106.368 26.9473C102.25 26.9473 99.0723 24.2523 99.0723 19.8904C99.0723 16.0008 102.002 12.8613 106.174 12.8613C110.126 12.8613 113 15.7785 113 20.3349V21.2518H103.494C103.742 22.502 104.903 23.6411 106.837 23.6411C107.777 23.6411 109.407 23.2244 110.154 22.502L111.95 25.1692C110.623 26.3638 108.413 26.9473 106.368 26.9473ZM108.938 18.4735C108.827 17.5289 108.136 16.1675 106.174 16.1675C104.323 16.1675 103.604 17.5011 103.438 18.4735H108.938Z" fill="white"/>
<path d="M94.261 26.6145H89.729L84.4785 13.1953H88.9553L91.9674 21.6969L95.0072 13.1953H99.5115L94.261 26.6145Z" fill="white"/>
<path d="M77.5881 26.9473C73.0561 26.9473 70.3203 23.6689 70.3203 19.8904C70.3203 16.1119 73.0561 12.8613 77.5881 12.8613C82.1754 12.8613 84.8836 16.1119 84.8836 19.8904C84.8836 23.6689 82.1754 26.9473 77.5881 26.9473ZM77.5881 23.1688C79.4672 23.1688 80.5173 21.6963 80.5173 19.8904C80.5173 18.1123 79.4672 16.6398 77.5881 16.6398C75.7366 16.6398 74.7142 18.1123 74.7142 19.8904C74.7142 21.6963 75.7366 23.1688 77.5881 23.1688Z" fill="white"/>
<path d="M68.9471 26.6172H64.6914V8.08594H68.9471V26.6172Z" fill="white"/>
<path d="M55.9866 26.9473C51.4545 26.9473 48.7188 23.6689 48.7188 19.8904C48.7188 16.1119 51.4545 12.8613 55.9866 12.8613C60.5738 12.8613 63.282 16.1119 63.282 19.8904C63.282 23.6689 60.5738 26.9473 55.9866 26.9473ZM55.9866 23.1688C57.8657 23.1688 58.9158 21.6963 58.9158 19.8904C58.9158 18.1123 57.8657 16.6398 55.9866 16.6398C54.1351 16.6398 53.1126 18.1123 53.1126 19.8904C53.1126 21.6963 54.1351 23.1688 55.9866 23.1688Z" fill="white"/>
<path d="M39.681 32.0593C37.3873 32.0593 35.4806 31.4759 33.7672 30.059L35.6187 27.0028C36.6412 28.1142 38.1334 28.5587 39.681 28.5587C41.0903 28.5587 43.08 27.9752 43.08 25.4748V24.4468C41.9746 25.7526 40.6482 26.3916 39.1283 26.3916C35.8674 26.3916 33.2422 24.1412 33.2422 19.6126C33.2422 15.1951 35.7845 12.8613 39.1283 12.8613C40.6205 12.8613 42.0022 13.4448 43.08 14.7784V13.1947H47.308V25.4192C47.308 30.8925 42.9971 32.0593 39.681 32.0593ZM40.5376 22.6131C41.4219 22.6131 42.5549 22.1408 43.08 21.4185V17.8345C42.5549 17.1121 41.4219 16.6398 40.5376 16.6398C38.8519 16.6398 37.6084 17.6678 37.6084 19.6126C37.6084 21.5852 38.8519 22.6131 40.5376 22.6131Z" fill="white"/>
<path d="M13.7073 34L25.1526 22.4524C28.1735 19.4044 28.1735 14.4627 25.1526 11.4147L19.7859 6L13.7365 12.1034L19.3401 17.6256C20.8266 19.0905 20.8266 21.4656 19.3401 22.9305L16.6982 25.534L13.7091 22.5883L10.719 25.5349L8.07829 22.9325C6.59176 21.4675 6.59176 19.0925 8.07829 17.6275L13.683 12.1042L7.63469 6.0018L2.26575 11.4187C-0.755246 14.4667 -0.755252 19.4085 2.26575 22.4565L13.7073 34Z" fill="url(#paint0_linear_2322_7505)"/>
<defs>
<linearGradient id="paint0_linear_2322_7505" x1="8.32995" y1="9.19734" x2="30.7251" y2="33.2207" gradientUnits="userSpaceOnUse">
<stop stop-color="#D05BF8"/>
<stop offset="1" stop-color="#FF18A0"/>
</linearGradient>
</defs>
</svg>
