<svg width="16" height="16" viewBox="0 0 16 16" fill="none" xmlns="http://www.w3.org/2000/svg">
<path d="M8.95372 9.99959H2.93372C1.72039 9.99959 0.947053 8.69959 1.53372 7.63293L3.08705 4.80626L4.54039 2.15959C5.14705 1.05959 6.73372 1.05959 7.34039 2.15959L8.80039 4.80626L9.50039 6.07959L10.3537 7.63293C10.9404 8.69959 10.1671 9.99959 8.95372 9.99959Z" fill="white"/>
<path d="M15.1007 10.6673C15.1007 13.0607 13.1607 15.0007 10.7673 15.0007C8.73399 15.0007 7.034 13.6073 6.56066 11.714C6.514 11.514 6.66733 11.334 6.874 11.334H9.38733C10.314 11.334 11.154 10.854 11.6273 10.0607C12.094 9.26066 12.114 8.30066 11.6607 7.48733L11.3273 6.87399C11.2007 6.64733 11.3807 6.37399 11.634 6.42066C13.6073 6.82066 15.1007 8.56733 15.1007 10.6673Z" fill="white"/>
</svg>
