<svg width="16" height="16" viewBox="0 0 16 16" fill="none" xmlns="http://www.w3.org/2000/svg">
<path d="M14.6665 1.41907C14.9398 1.41907 15.1665 1.64573 15.1665 1.91907C15.1665 2.1924 14.9398 2.41907 14.6665 2.41907H13.5601V9.89954C13.5599 10.5526 13.2534 11.1723 12.7271 11.5656L9.25342 14.1661C8.51349 14.7193 7.49333 14.7193 6.75342 14.1661L3.27979 11.5656C2.75343 11.1723 2.44692 10.5526 2.44678 9.89954V2.41907H1.3335C1.06016 2.41907 0.833496 2.1924 0.833496 1.91907C0.833496 1.64573 1.06016 1.41907 1.3335 1.41907H14.6665ZM5.3335 8.41907C5.06016 8.41907 4.8335 8.64573 4.8335 8.91907C4.8335 9.1924 5.06016 9.41907 5.3335 9.41907H10.6665C10.9398 9.41907 11.1665 9.1924 11.1665 8.91907C11.1665 8.64573 10.9398 8.41907 10.6665 8.41907H5.3335ZM5.3335 5.08606C5.06016 5.08606 4.8335 5.31273 4.8335 5.58606C4.83368 5.85925 5.06027 6.08606 5.3335 6.08606H10.6665C10.9397 6.08606 11.1663 5.85925 11.1665 5.58606C11.1665 5.31273 10.9398 5.08606 10.6665 5.08606H5.3335Z" fill="white"/>
</svg>
