<svg width="16" height="16" viewBox="0 0 16 16" fill="none" xmlns="http://www.w3.org/2000/svg">
<path d="M7.98039 1.33337C4.30039 1.33337 1.31372 4.32004 1.31372 8.00004C1.31372 11.68 4.30039 14.6667 7.98039 14.6667C11.6604 14.6667 14.6471 11.68 14.6471 8.00004C14.6471 4.32004 11.6671 1.33337 7.98039 1.33337ZM11.6004 10.9534C10.7804 12.1334 9.43372 12.8334 8.00039 12.8334C6.56705 12.8334 5.22039 12.1334 4.40039 10.9534C4.24039 10.7267 4.30039 10.4134 4.52705 10.26C4.75372 10.1 5.06705 10.16 5.22039 10.3867C5.85372 11.2934 6.89372 11.84 8.00039 11.84C9.10705 11.84 10.1471 11.3 10.7804 10.3867C10.9404 10.16 11.2471 10.1067 11.4737 10.26C11.7071 10.4134 11.7604 10.7267 11.6004 10.9534Z" fill="white"/>
</svg>
