<svg width="16" height="16" viewBox="0 0 16 16" fill="none" xmlns="http://www.w3.org/2000/svg">
<path d="M10.52 1.33337H5.48004C2.96004 1.33337 2.33337 2.00671 2.33337 4.69337V12.2C2.33337 13.9734 3.30671 14.3934 4.48671 13.1267L4.49337 13.12C5.04004 12.54 5.87337 12.5867 6.34671 13.22L7.02004 14.12C7.56004 14.8334 8.43337 14.8334 8.97337 14.12L9.64671 13.22C10.1267 12.58 10.96 12.5334 11.5067 13.12C12.6934 14.3867 13.66 13.9667 13.66 12.1934V4.69337C13.6667 2.00671 13.04 1.33337 10.52 1.33337ZM9.89337 6.66004L9.56004 7.00004H9.55337L7.53337 9.02004C7.44671 9.10671 7.26671 9.20004 7.14004 9.21337L6.24004 9.34671C5.91337 9.39337 5.68671 9.16004 5.73337 8.84004L5.86004 7.93337C5.88004 7.80671 5.96671 7.63337 6.05337 7.54004L8.08004 5.52004L8.41337 5.18004C8.63337 4.96004 8.88004 4.80004 9.14671 4.80004C9.37337 4.80004 9.62004 4.90671 9.89337 5.18004C10.4934 5.78004 10.3 6.25337 9.89337 6.66004Z" fill="white"/>
</svg>
