<svg width="16" height="16" viewBox="0 0 16 16" fill="none" xmlns="http://www.w3.org/2000/svg">
<path d="M11.747 3.66004V4.15337L9.38699 2.78671C8.49366 2.27337 7.24699 2.27337 6.36033 2.78671L4.00033 4.16004V3.66004C4.00033 2.16004 4.82033 1.33337 6.32033 1.33337H9.42699C10.927 1.33337 11.747 2.16004 11.747 3.66004Z" fill="white"/>
<path d="M11.727 5.23671L11.6337 5.19004L10.727 4.67004L8.84699 3.58337C8.27366 3.25004 7.39366 3.25004 6.82032 3.58337L4.94033 4.66337L4.03366 5.19671L3.91366 5.25671C2.74699 6.04337 2.66699 6.19004 2.66699 7.45004V10.4634C2.66699 11.7234 2.74699 11.87 3.94033 12.6767L6.82032 14.3367C7.10699 14.51 7.46699 14.5834 7.83366 14.5834C8.19366 14.5834 8.56033 14.5034 8.84699 14.3367L11.7537 12.6567C12.927 11.87 13.0003 11.73 13.0003 10.4634V7.45004C13.0003 6.19004 12.9203 6.04337 11.727 5.23671ZM9.69366 8.92337L9.28699 9.42337C9.22033 9.49671 9.17366 9.63671 9.18033 9.73671L9.22032 10.3767C9.24699 10.77 8.96699 10.97 8.60033 10.83L8.00699 10.59C7.91366 10.5567 7.76032 10.5567 7.66699 10.59L7.07366 10.8234C6.70699 10.97 6.42699 10.7634 6.45366 10.37L6.49366 9.73004C6.50033 9.63004 6.45366 9.49004 6.38699 9.41671L5.97366 8.92337C5.72033 8.62337 5.83366 8.29004 6.21366 8.19004L6.83366 8.03004C6.93366 8.00337 7.04699 7.91004 7.10033 7.83004L7.44699 7.29671C7.66033 6.96337 8.00033 6.96337 8.22032 7.29671L8.56699 7.83004C8.62033 7.91671 8.74033 8.00337 8.83366 8.03004L9.45366 8.19004C9.83366 8.29004 9.94699 8.62337 9.69366 8.92337Z" fill="white"/>
</svg>
