<svg width="16" height="16" viewBox="0 0 16 16" fill="none" xmlns="http://www.w3.org/2000/svg">
<path fill-rule="evenodd" clip-rule="evenodd" d="M8.03554 7.93163C9.79665 7.93163 11.2191 6.50919 11.2191 4.74812C11.2868 2.98701 9.86438 1.56458 8.03554 1.56458C6.27446 1.56458 4.85202 2.98701 4.85202 4.74812C4.85202 6.50919 6.27446 7.93163 8.03554 7.93163Z" fill="white"/>
<path fill-rule="evenodd" clip-rule="evenodd" d="M12.7088 12.2C12.5056 11.4549 12.0992 10.7776 11.2864 10.2357C10.609 9.76156 9.52528 9.42289 8.03511 9.42289C5.12253 9.42289 3.7001 10.7776 3.29369 12.2C3.15822 12.6064 3.36142 13.0128 3.7001 13.216C4.91933 14.0289 6.4095 14.4353 8.03511 14.4353C9.59301 14.4353 11.0832 13.9611 12.3024 13.216C12.6411 13.0128 12.8443 12.6064 12.7088 12.2Z" fill="white"/>
</svg>
