<svg width="20" height="8" viewBox="0 0 20 8" fill="none" xmlns="http://www.w3.org/2000/svg">
<g clip-path="url(#clip0_2965_9621)">
<path d="M9.43457 5.76953C9.80837 5.8383 10.1916 5.8383 10.5654 5.76953C11.2836 5.6374 11.8157 5.2233 12.25 4.78223C12.6716 4.35401 13.1286 3.76262 13.6504 3.0918L15.5 0.714844C16.2907 -0.301708 16.9561 -1.15419 17.3838 -1.86426C17.8005 -2.55607 18.1792 -3.40543 17.958 -4.34277C17.8508 -4.79715 17.6425 -5.22137 17.3496 -5.58496C16.7455 -6.33502 15.8429 -6.55848 15.041 -6.6543C14.218 -6.7526 13.1372 -6.75 11.8496 -6.75H8.15039C6.86282 -6.75 5.78196 -6.7526 4.95898 -6.6543C4.15706 -6.55848 3.25455 -6.33502 2.65039 -5.58496C2.35754 -5.22137 2.14921 -4.79715 2.04199 -4.34277C1.82084 -3.40543 2.19954 -2.55607 2.61621 -1.86426C3.04389 -1.15419 3.70935 -0.301708 4.5 0.714844L6.34961 3.0918C6.87136 3.76262 7.3284 4.35401 7.75 4.78223C8.18426 5.2233 8.71643 5.6374 9.43457 5.76953Z" fill="#E81B9D" stroke="#0F0E0F" stroke-width="2.5"/>
</g>
<defs>
<clipPath id="clip0_2965_9621">
<rect width="20" height="16" fill="white" transform="translate(0 -8)"/>
</clipPath>
</defs>
</svg>
