<svg width="16" height="16" viewBox="0 0 16 16" fill="none" xmlns="http://www.w3.org/2000/svg">
<path fill-rule="evenodd" clip-rule="evenodd" d="M14.1009 3.76122C13.2989 3.50122 12.6655 2.86922 12.4062 2.06855C12.3175 1.79388 11.8609 1.79388 11.7722 2.06855C11.5129 2.86922 10.8795 3.50122 10.0775 3.76122C9.94021 3.80588 9.84687 3.93388 9.84687 4.07855C9.84687 4.22255 9.94021 4.35055 10.0775 4.39522C10.8782 4.65455 11.5115 5.28988 11.7722 6.09455C11.8162 6.23188 11.9449 6.32522 12.0889 6.32522C12.2335 6.32522 12.3622 6.23188 12.4062 6.09455C12.6669 5.28988 13.3002 4.65455 14.1009 4.39522C14.2382 4.35055 14.3315 4.22255 14.3315 4.07855C14.3315 3.93388 14.2382 3.80588 14.1009 3.76122Z" fill="white"/>
<path fill-rule="evenodd" clip-rule="evenodd" d="M11.7181 8.26682L8.56275 7.24215L7.53875 4.08745C7.45075 3.81412 7.20675 3.63745 6.91875 3.63745C6.63008 3.63745 6.38675 3.81412 6.29808 4.08745L5.28275 7.24015L2.12142 8.26615C1.85075 8.35215 1.66875 8.60148 1.66875 8.88748C1.66875 9.17282 1.85075 9.42215 2.12008 9.50748L5.27275 10.5268L6.29808 13.6868C6.38675 13.9602 6.63008 14.1375 6.91875 14.1375C7.20675 14.1375 7.45075 13.9602 7.53875 13.6868L8.55542 10.5342L11.7161 9.50815C11.9867 9.42215 12.1694 9.17282 12.1694 8.88748C12.1694 8.60148 11.9867 8.35215 11.7181 8.26682Z" fill="white"/>
</svg>
