<svg width="24" height="24" viewBox="0 0 24 24" fill="none" xmlns="http://www.w3.org/2000/svg">
<path fill-rule="evenodd" clip-rule="evenodd" d="M11.4364 9.34494C11.3193 9.22779 11.1293 9.22779 11.0122 9.34494L5.2763 15.0808C4.7173 15.6398 4.4093 16.3828 4.4093 17.1738C4.4093 17.9648 4.7183 18.7068 5.2773 19.2668L6.5353 20.5188C7.1123 21.0948 7.8703 21.3838 8.6283 21.3838C9.3863 21.3838 10.1453 21.0948 10.7223 20.5188L16.4542 14.7869C16.5713 14.6698 16.5713 14.4798 16.4542 14.3627L11.4364 9.34494Z" fill="url(#paint0_linear_2965_5678)"/>
<path fill-rule="evenodd" clip-rule="evenodd" d="M18.9468 8.10638L17.6888 6.85438C16.5348 5.70139 14.6568 5.70038 13.5028 6.85438L12.4969 7.86025C12.3798 7.97741 12.3798 8.16736 12.4969 8.28451L17.5146 13.3022C17.6318 13.4193 17.8218 13.4193 17.9389 13.3021L18.9478 12.2924C20.1018 11.1374 20.1018 9.26038 18.9468 8.10638Z" fill="url(#paint1_linear_2965_5678)"/>
<path fill-rule="evenodd" clip-rule="evenodd" d="M9.65869 4.13737C10.0727 4.13737 10.4087 3.80137 10.4087 3.38737V3.33137C10.4087 2.91737 10.0727 2.60938 9.65869 2.60938C9.24469 2.60938 8.90869 2.97337 8.90869 3.38737C8.90869 3.80137 9.24469 4.13737 9.65869 4.13737Z" fill="url(#paint2_linear_2965_5678)"/>
<path fill-rule="evenodd" clip-rule="evenodd" d="M4.94141 8.85397C5.35541 8.85397 5.69141 8.51797 5.69141 8.10397V8.06697C5.69141 7.65297 5.35541 7.33497 4.94141 7.33497C4.52741 7.33497 4.19141 7.68997 4.19141 8.10397C4.19141 8.51797 4.52741 8.85397 4.94141 8.85397Z" fill="url(#paint3_linear_2965_5678)"/>
<path fill-rule="evenodd" clip-rule="evenodd" d="M17.3467 18.4961C16.9327 18.4961 16.5967 18.8511 16.5967 19.2651C16.5967 19.6791 16.9327 20.0151 17.3467 20.0151C17.7607 20.0151 18.0967 19.6791 18.0967 19.2651V19.2271C18.0967 18.8131 17.7607 18.4961 17.3467 18.4961Z" fill="url(#paint4_linear_2965_5678)"/>
<path fill-rule="evenodd" clip-rule="evenodd" d="M8.76856 8.06805C9.18256 8.06805 9.51856 7.70404 9.51856 7.29004C9.51856 6.87604 9.18256 6.54004 8.76856 6.54004C8.35456 6.54004 8.01856 6.87604 8.01856 7.29004V7.34605C8.01856 7.76005 8.35456 8.06805 8.76856 8.06805Z" fill="url(#paint5_linear_2965_5678)"/>
<defs>
<linearGradient id="paint0_linear_2965_5678" x1="6.74496" y1="5.67827" x2="18.727" y2="16.5787" gradientUnits="userSpaceOnUse">
<stop stop-color="#D05BF8"/>
<stop offset="1" stop-color="#FF18A0"/>
</linearGradient>
<linearGradient id="paint1_linear_2965_5678" x1="6.74496" y1="5.67827" x2="18.727" y2="16.5787" gradientUnits="userSpaceOnUse">
<stop stop-color="#D05BF8"/>
<stop offset="1" stop-color="#FF18A0"/>
</linearGradient>
<linearGradient id="paint2_linear_2965_5678" x1="6.74496" y1="5.67827" x2="18.727" y2="16.5787" gradientUnits="userSpaceOnUse">
<stop stop-color="#D05BF8"/>
<stop offset="1" stop-color="#FF18A0"/>
</linearGradient>
<linearGradient id="paint3_linear_2965_5678" x1="6.74496" y1="5.67827" x2="18.727" y2="16.5787" gradientUnits="userSpaceOnUse">
<stop stop-color="#D05BF8"/>
<stop offset="1" stop-color="#FF18A0"/>
</linearGradient>
<linearGradient id="paint4_linear_2965_5678" x1="6.74496" y1="5.67827" x2="18.727" y2="16.5787" gradientUnits="userSpaceOnUse">
<stop stop-color="#D05BF8"/>
<stop offset="1" stop-color="#FF18A0"/>
</linearGradient>
<linearGradient id="paint5_linear_2965_5678" x1="6.74496" y1="5.67827" x2="18.727" y2="16.5787" gradientUnits="userSpaceOnUse">
<stop stop-color="#D05BF8"/>
<stop offset="1" stop-color="#FF18A0"/>
</linearGradient>
</defs>
</svg>
