<svg width="16" height="16" viewBox="0 0 16 16" fill="none" xmlns="http://www.w3.org/2000/svg">
<path fill-rule="evenodd" clip-rule="evenodd" d="M8.7256 3.34239C6.54885 3.34239 4.78447 5.11923 4.78447 7.31026C4.78447 8.3745 5.20052 9.34082 5.87782 10.0534C5.88525 10.0601 5.89257 10.0672 5.89976 10.0744C5.91087 10.0856 5.92151 10.0971 5.93168 10.1089C6.64541 10.8311 7.6336 11.2781 8.7256 11.2781C10.9023 11.2781 12.6667 9.50177 12.6667 7.31026C12.6667 5.11923 10.9023 3.34239 8.7256 3.34239ZM5.45197 11.4743C6.35137 12.192 7.48873 12.6205 8.7256 12.6205C11.6387 12.6205 14 10.2432 14 7.31026C14 4.37796 11.6388 2 8.7256 2C5.81237 2 3.45113 4.37796 3.45113 7.31026C3.45113 8.51404 3.84891 9.6242 4.51935 10.5148L3.71343 11.3261L3.20621 10.8152C2.94591 10.5531 2.52379 10.5531 2.26341 10.8151C2.00302 11.0772 2.00295 11.5022 2.26327 11.7643L2.77052 12.2751L2.19531 12.8542C1.93493 13.1163 1.93489 13.5412 2.19521 13.8034C2.45553 14.0655 2.87765 14.0656 3.13802 13.8035L3.71319 13.2246L4.21919 13.7341C4.47949 13.9963 4.90161 13.9964 5.16199 13.7343C5.42238 13.4722 5.42245 13.0472 5.16213 12.7851L4.6561 12.2754L5.45197 11.4743Z" fill="white"/>
</svg>
