<svg width="16" height="16" viewBox="0 0 16 16" fill="none" xmlns="http://www.w3.org/2000/svg">
<path fill-rule="evenodd" clip-rule="evenodd" d="M4.78112 4.76407C3.46433 6.08085 3.46462 8.2158 4.7811 9.53228C5.42055 10.1717 6.25285 10.5007 7.0907 10.5191C7.09927 10.5186 7.10792 10.5185 7.11663 10.5185C7.13009 10.5185 7.14342 10.5189 7.15667 10.5199C8.02233 10.522 8.8887 10.1928 9.54929 9.53224C10.8661 8.21546 10.8661 6.08086 9.54929 4.76409C8.23281 3.44761 6.09785 3.44733 4.78112 4.76407ZM7.68684 11.6304C8.66215 11.5176 9.60764 11.087 10.3559 10.3388C12.1181 8.57657 12.1181 5.71976 10.3559 3.95751C8.59399 2.19564 5.73683 2.19521 3.97454 3.95749C2.21224 5.7198 2.21265 8.57698 3.97452 10.3389C4.69782 11.0621 5.60548 11.4886 6.54617 11.6181L6.5461 12.5931L5.93233 12.593C5.61734 12.5929 5.36199 12.8483 5.36192 13.1632C5.36188 13.4782 5.6172 13.7336 5.93216 13.7336L6.54596 13.7337L6.54591 14.4296C6.54588 14.7446 6.80118 15 7.11618 15C7.43114 15 7.68653 14.7447 7.68655 14.4297L7.68665 13.7339L8.29892 13.734C8.61392 13.7341 8.86931 13.4788 8.86934 13.1638C8.86937 12.8488 8.61409 12.5934 8.29909 12.5933L7.68676 12.5932L7.68684 11.6304Z" fill="white"/>
<path fill-rule="evenodd" clip-rule="evenodd" d="M12.173 3.04404L12.1708 4.0908C12.1701 4.42048 12.4368 4.6883 12.7665 4.68898C13.0962 4.68966 13.364 4.42295 13.3647 4.09326L13.3698 1.64732C13.3837 1.47854 13.3261 1.30498 13.1969 1.17585C13.1418 1.12073 13.0786 1.07865 13.0112 1.0496C12.9363 1.01703 12.8549 0.999828 12.7717 1L10.2766 1.00516C9.9469 1.00585 9.68018 1.27366 9.6809 1.60335C9.68156 1.93303 9.94935 2.19974 10.279 2.19906L11.3317 2.19688L9.95932 3.56927C9.18866 2.96488 8.21754 2.60448 7.16219 2.60448C4.65749 2.60448 2.62668 4.63529 2.62668 7.13999C2.62668 9.64516 4.65743 11.676 7.16219 11.676C9.66735 11.676 11.6982 9.64516 11.6982 7.13999C11.6982 6.12076 11.3619 5.18009 10.7943 4.42272L12.173 3.04404ZM9.55268 4.8048C8.94588 4.18387 8.09904 3.79839 7.16219 3.79839C5.31686 3.79839 3.82058 5.29464 3.82058 7.13999C3.82058 8.98588 5.31691 10.4821 7.16219 10.4821C9.00802 10.4821 10.5043 8.98582 10.5043 7.13999C10.5043 6.23132 10.1414 5.40723 9.55268 4.8048Z" fill="white"/>
</svg>
